<mxfile host="app.diagrams.net" agent="Mozilla/5.0 (Windows NT 10.0; Win64; x64) AppleWebKit/537.36 (KHTML, like Gecko) Chrome/136.0.0.0 Safari/537.36" version="27.0.5">
  <diagram name="Page-1" id="F5Jsez5Rwyn1M6LLFpqq">
    <mxGraphModel dx="3229" dy="2210" grid="1" gridSize="10" guides="1" tooltips="1" connect="1" arrows="1" fold="1" page="1" pageScale="1" pageWidth="850" pageHeight="1100" math="0" shadow="0">
      <root>
        <mxCell id="0" />
        <mxCell id="1" parent="0" />
        <mxCell id="ty5oNty4DjmErNEilH_E-1" value="BusinessLogic" style="shape=folder;fontStyle=1;spacingTop=10;tabWidth=40;tabHeight=14;tabPosition=left;html=1;whiteSpace=wrap;" vertex="1" parent="1">
          <mxGeometry x="10" y="210" width="310" height="130" as="geometry" />
        </mxCell>
        <mxCell id="ty5oNty4DjmErNEilH_E-2" value="Presentation" style="shape=folder;fontStyle=1;spacingTop=10;tabWidth=40;tabHeight=14;tabPosition=left;html=1;whiteSpace=wrap;" vertex="1" parent="1">
          <mxGeometry x="530" y="-140" width="290" height="130" as="geometry" />
        </mxCell>
        <mxCell id="ty5oNty4DjmErNEilH_E-3" value="Model" style="shape=folder;fontStyle=1;spacingTop=10;tabWidth=40;tabHeight=14;tabPosition=left;html=1;whiteSpace=wrap;" vertex="1" parent="1">
          <mxGeometry x="510" y="210" width="290" height="130" as="geometry" />
        </mxCell>
        <mxCell id="ty5oNty4DjmErNEilH_E-5" value="" style="endArrow=block;dashed=1;endFill=0;endSize=12;html=1;rounded=0;entryX=0;entryY=0;entryDx=165;entryDy=14;entryPerimeter=0;exitX=0.5;exitY=1;exitDx=0;exitDy=0;exitPerimeter=0;" edge="1" parent="1" source="ty5oNty4DjmErNEilH_E-2" target="ty5oNty4DjmErNEilH_E-3">
          <mxGeometry width="160" relative="1" as="geometry">
            <mxPoint x="330" y="292" as="sourcePoint" />
            <mxPoint x="570" y="292" as="targetPoint" />
          </mxGeometry>
        </mxCell>
        <mxCell id="ty5oNty4DjmErNEilH_E-6" value="" style="endArrow=block;dashed=1;endFill=0;endSize=12;html=1;rounded=0;entryX=0;entryY=0;entryDx=175;entryDy=14;entryPerimeter=0;exitX=0;exitY=0;exitDx=0;exitDy=72;exitPerimeter=0;" edge="1" parent="1" source="ty5oNty4DjmErNEilH_E-2" target="ty5oNty4DjmErNEilH_E-1">
          <mxGeometry width="160" relative="1" as="geometry">
            <mxPoint x="685" as="sourcePoint" />
            <mxPoint x="685" y="234" as="targetPoint" />
          </mxGeometry>
        </mxCell>
        <mxCell id="ty5oNty4DjmErNEilH_E-7" value="&lt;div style=&quot;text-align: justify;&quot;&gt;&lt;span style=&quot;color: rgb(255, 51, 51); font-size: 18px;&quot;&gt;Contains the implementation of the GUI&lt;/span&gt;&lt;/div&gt;" style="text;html=1;align=center;verticalAlign=middle;whiteSpace=wrap;rounded=0;" vertex="1" parent="1">
          <mxGeometry x="130" y="-170" width="260" height="100" as="geometry" />
        </mxCell>
        <mxCell id="ty5oNty4DjmErNEilH_E-8" value="" style="endArrow=classic;html=1;rounded=0;entryX=0;entryY=0;entryDx=0;entryDy=43;entryPerimeter=0;strokeColor=#CCCC00;exitX=1;exitY=0.5;exitDx=0;exitDy=0;" edge="1" parent="1" source="ty5oNty4DjmErNEilH_E-7" target="ty5oNty4DjmErNEilH_E-2">
          <mxGeometry width="50" height="50" relative="1" as="geometry">
            <mxPoint x="400" y="-120" as="sourcePoint" />
            <mxPoint x="450" y="-150" as="targetPoint" />
          </mxGeometry>
        </mxCell>
        <mxCell id="ty5oNty4DjmErNEilH_E-9" value="&lt;div style=&quot;text-align: justify;&quot;&gt;&lt;font color=&quot;#ff3333&quot;&gt;&lt;span style=&quot;font-size: 18px;&quot;&gt;Contains the implementation of&lt;/span&gt;&lt;/font&gt;&lt;/div&gt;&lt;div style=&quot;text-align: justify;&quot;&gt;&lt;font color=&quot;#ff3333&quot;&gt;&lt;span style=&quot;font-size: 18px;&quot;&gt;ClientBLL,&amp;nbsp;&lt;/span&gt;&lt;/font&gt;&lt;span style=&quot;font-size: 18px; color: light-dark(rgb(255, 51, 51), rgb(255, 119, 119)); background-color: transparent;&quot;&gt;ProductBLL,&amp;nbsp; OrderBLL&lt;/span&gt;&lt;/div&gt;" style="text;html=1;align=center;verticalAlign=middle;whiteSpace=wrap;rounded=0;" vertex="1" parent="1">
          <mxGeometry x="-160" y="-30" width="340" height="110" as="geometry" />
        </mxCell>
        <mxCell id="ty5oNty4DjmErNEilH_E-10" value="" style="endArrow=classic;html=1;rounded=0;entryX=0;entryY=0;entryDx=175;entryDy=14;entryPerimeter=0;strokeColor=#CCCC00;exitX=0.25;exitY=1;exitDx=0;exitDy=0;" edge="1" parent="1" source="ty5oNty4DjmErNEilH_E-9" target="ty5oNty4DjmErNEilH_E-1">
          <mxGeometry width="50" height="50" relative="1" as="geometry">
            <mxPoint x="120" y="120" as="sourcePoint" />
            <mxPoint x="250" y="143" as="targetPoint" />
          </mxGeometry>
        </mxCell>
        <mxCell id="ty5oNty4DjmErNEilH_E-11" value="&lt;div style=&quot;text-align: justify;&quot;&gt;&lt;font color=&quot;#ff3333&quot;&gt;&lt;span style=&quot;font-size: 18px;&quot;&gt;Contains the implementation of&lt;/span&gt;&lt;/font&gt;&lt;/div&gt;&lt;div style=&quot;text-align: justify;&quot;&gt;&lt;font color=&quot;#ff3333&quot;&gt;&lt;span style=&quot;font-size: 18px;&quot;&gt;Client, Product, Orders, Bill&lt;/span&gt;&lt;/font&gt;&lt;/div&gt;" style="text;html=1;align=center;verticalAlign=middle;whiteSpace=wrap;rounded=0;" vertex="1" parent="1">
          <mxGeometry x="410" y="50" width="260" height="100" as="geometry" />
        </mxCell>
        <mxCell id="ty5oNty4DjmErNEilH_E-12" value="" style="endArrow=classic;html=1;rounded=0;entryX=0;entryY=0;entryDx=175;entryDy=14;entryPerimeter=0;strokeColor=#CCCC00;exitX=0.5;exitY=1;exitDx=0;exitDy=0;" edge="1" parent="1" source="ty5oNty4DjmErNEilH_E-11">
          <mxGeometry width="50" height="50" relative="1" as="geometry">
            <mxPoint x="540" y="120" as="sourcePoint" />
            <mxPoint x="625" y="224" as="targetPoint" />
          </mxGeometry>
        </mxCell>
        <mxCell id="ty5oNty4DjmErNEilH_E-13" value="Connection" style="shape=folder;fontStyle=1;spacingTop=10;tabWidth=40;tabHeight=14;tabPosition=left;html=1;whiteSpace=wrap;" vertex="1" parent="1">
          <mxGeometry x="1100" y="380" width="290" height="130" as="geometry" />
        </mxCell>
        <mxCell id="ty5oNty4DjmErNEilH_E-14" value="DataAccess" style="shape=folder;fontStyle=1;spacingTop=10;tabWidth=40;tabHeight=14;tabPosition=left;html=1;whiteSpace=wrap;" vertex="1" parent="1">
          <mxGeometry x="980" y="200" width="290" height="130" as="geometry" />
        </mxCell>
        <mxCell id="ty5oNty4DjmErNEilH_E-15" value="Tools" style="shape=folder;fontStyle=1;spacingTop=10;tabWidth=40;tabHeight=14;tabPosition=left;html=1;whiteSpace=wrap;" vertex="1" parent="1">
          <mxGeometry x="980" y="-110" width="290" height="130" as="geometry" />
        </mxCell>
        <mxCell id="ty5oNty4DjmErNEilH_E-17" value="" style="endArrow=block;dashed=1;endFill=0;endSize=12;html=1;rounded=0;entryX=0;entryY=0;entryDx=0;entryDy=72;entryPerimeter=0;exitX=0;exitY=0;exitDx=290;exitDy=72;exitPerimeter=0;" edge="1" parent="1" source="ty5oNty4DjmErNEilH_E-2" target="ty5oNty4DjmErNEilH_E-15">
          <mxGeometry width="160" relative="1" as="geometry">
            <mxPoint x="685" as="sourcePoint" />
            <mxPoint x="685" y="234" as="targetPoint" />
          </mxGeometry>
        </mxCell>
        <mxCell id="ty5oNty4DjmErNEilH_E-19" value="" style="endArrow=block;dashed=1;endFill=0;endSize=12;html=1;rounded=0;entryX=0;entryY=0;entryDx=165;entryDy=14;entryPerimeter=0;exitX=0.562;exitY=1.019;exitDx=0;exitDy=0;exitPerimeter=0;" edge="1" parent="1" source="ty5oNty4DjmErNEilH_E-14" target="ty5oNty4DjmErNEilH_E-13">
          <mxGeometry width="160" relative="1" as="geometry">
            <mxPoint x="830" as="sourcePoint" />
            <mxPoint x="995" y="114" as="targetPoint" />
          </mxGeometry>
        </mxCell>
        <mxCell id="ty5oNty4DjmErNEilH_E-20" value="&lt;div style=&quot;text-align: justify;&quot;&gt;&lt;font color=&quot;#ff3333&quot;&gt;&lt;span style=&quot;font-size: 18px;&quot;&gt;Contains the implementation of&lt;/span&gt;&lt;/font&gt;&lt;/div&gt;&lt;div style=&quot;text-align: justify;&quot;&gt;&lt;font color=&quot;#ff3333&quot;&gt;&lt;span style=&quot;font-size: 18px;&quot;&gt;ConnectionFactory&lt;/span&gt;&lt;/font&gt;&lt;/div&gt;" style="text;html=1;align=center;verticalAlign=middle;whiteSpace=wrap;rounded=0;" vertex="1" parent="1">
          <mxGeometry x="1020" y="540" width="330" height="110" as="geometry" />
        </mxCell>
        <mxCell id="ty5oNty4DjmErNEilH_E-21" value="" style="endArrow=classic;html=1;rounded=0;entryX=0.25;entryY=1;entryDx=0;entryDy=0;entryPerimeter=0;strokeColor=#CCCC00;exitX=0.25;exitY=0;exitDx=0;exitDy=0;" edge="1" parent="1" source="ty5oNty4DjmErNEilH_E-20" target="ty5oNty4DjmErNEilH_E-13">
          <mxGeometry width="50" height="50" relative="1" as="geometry">
            <mxPoint x="870" y="540" as="sourcePoint" />
            <mxPoint x="1110" y="694" as="targetPoint" />
          </mxGeometry>
        </mxCell>
        <mxCell id="ty5oNty4DjmErNEilH_E-22" value="" style="endArrow=block;dashed=1;endFill=0;endSize=12;html=1;rounded=0;entryX=1.001;entryY=0.919;entryDx=0;entryDy=0;entryPerimeter=0;exitX=0;exitY=0;exitDx=0;exitDy=130;exitPerimeter=0;" edge="1" parent="1" source="ty5oNty4DjmErNEilH_E-14" target="ty5oNty4DjmErNEilH_E-3">
          <mxGeometry width="160" relative="1" as="geometry">
            <mxPoint x="830" as="sourcePoint" />
            <mxPoint x="995" y="114" as="targetPoint" />
          </mxGeometry>
        </mxCell>
        <mxCell id="ty5oNty4DjmErNEilH_E-23" value="" style="endArrow=block;dashed=1;endFill=0;endSize=12;html=1;rounded=0;entryX=0;entryY=0;entryDx=0;entryDy=130;entryPerimeter=0;exitX=0;exitY=0;exitDx=310;exitDy=130;exitPerimeter=0;" edge="1" parent="1" source="ty5oNty4DjmErNEilH_E-1" target="ty5oNty4DjmErNEilH_E-14">
          <mxGeometry width="160" relative="1" as="geometry">
            <mxPoint x="330" y="292" as="sourcePoint" />
            <mxPoint x="520" y="292" as="targetPoint" />
            <Array as="points">
              <mxPoint x="320" y="440" />
              <mxPoint x="980" y="440" />
            </Array>
          </mxGeometry>
        </mxCell>
        <mxCell id="ty5oNty4DjmErNEilH_E-24" value="" style="endArrow=block;dashed=1;endFill=0;endSize=12;html=1;rounded=0;entryX=0;entryY=0;entryDx=0;entryDy=72;entryPerimeter=0;exitX=0;exitY=0;exitDx=310;exitDy=72;exitPerimeter=0;" edge="1" parent="1">
          <mxGeometry width="160" relative="1" as="geometry">
            <mxPoint x="320" y="330" as="sourcePoint" />
            <mxPoint x="510" y="330" as="targetPoint" />
          </mxGeometry>
        </mxCell>
        <mxCell id="ty5oNty4DjmErNEilH_E-25" value="&lt;div style=&quot;text-align: justify;&quot;&gt;&lt;font color=&quot;#ff3333&quot;&gt;&lt;span style=&quot;font-size: 18px;&quot;&gt;Contains the implementation of&lt;/span&gt;&lt;/font&gt;&lt;/div&gt;&lt;div style=&quot;text-align: justify;&quot;&gt;&lt;font color=&quot;#ff3333&quot;&gt;&lt;span style=&quot;font-size: 18px;&quot;&gt;TableReflection&lt;/span&gt;&lt;/font&gt;&lt;/div&gt;&lt;div style=&quot;text-align: justify;&quot;&gt;&lt;br&gt;&lt;/div&gt;" style="text;html=1;align=center;verticalAlign=middle;whiteSpace=wrap;rounded=0;" vertex="1" parent="1">
          <mxGeometry x="1010" y="-280" width="260" height="100" as="geometry" />
        </mxCell>
        <mxCell id="ty5oNty4DjmErNEilH_E-26" value="" style="endArrow=classic;html=1;rounded=0;entryX=0;entryY=0;entryDx=165;entryDy=14;entryPerimeter=0;strokeColor=#CCCC00;exitX=0.25;exitY=1;exitDx=0;exitDy=0;" edge="1" parent="1" source="ty5oNty4DjmErNEilH_E-25" target="ty5oNty4DjmErNEilH_E-15">
          <mxGeometry width="50" height="50" relative="1" as="geometry">
            <mxPoint x="400" y="-110" as="sourcePoint" />
            <mxPoint x="540" y="-87" as="targetPoint" />
          </mxGeometry>
        </mxCell>
        <mxCell id="ty5oNty4DjmErNEilH_E-28" value="&lt;div style=&quot;text-align: justify;&quot;&gt;&lt;font color=&quot;#ff3333&quot;&gt;&lt;span style=&quot;font-size: 18px;&quot;&gt;Contains the implementation of&lt;/span&gt;&lt;/font&gt;&lt;/div&gt;&lt;div style=&quot;text-align: justify;&quot;&gt;&lt;font color=&quot;#ff3333&quot;&gt;&lt;span style=&quot;font-size: 18px;&quot;&gt;AbstractDAO, BillDAO, ClientDAO, OrderDAO, ProductDAO&lt;/span&gt;&lt;/font&gt;&lt;/div&gt;&lt;div style=&quot;text-align: justify;&quot;&gt;&lt;br&gt;&lt;/div&gt;" style="text;html=1;align=center;verticalAlign=middle;whiteSpace=wrap;rounded=0;" vertex="1" parent="1">
          <mxGeometry x="1360" y="60" width="430" height="190" as="geometry" />
        </mxCell>
        <mxCell id="ty5oNty4DjmErNEilH_E-29" value="" style="endArrow=classic;html=1;rounded=0;entryX=0;entryY=0;entryDx=290;entryDy=14;entryPerimeter=0;strokeColor=#CCCC00;exitX=0;exitY=0.75;exitDx=0;exitDy=0;" edge="1" parent="1" source="ty5oNty4DjmErNEilH_E-28" target="ty5oNty4DjmErNEilH_E-14">
          <mxGeometry width="50" height="50" relative="1" as="geometry">
            <mxPoint x="1290" y="190" as="sourcePoint" />
            <mxPoint x="1360" y="274" as="targetPoint" />
          </mxGeometry>
        </mxCell>
      </root>
    </mxGraphModel>
  </diagram>
</mxfile>
